<svg width="96" xmlns="http://www.w3.org/2000/svg" height="96" viewBox="0 0 96 96" xmlns:xlink="http://www.w3.org/1999/xlink">
<path d="m72,38.931c-11.598,0-21,9.474-21,21.165 0,6.66 3.06,12.591 7.827,16.473-6.168,4.575-10.827,7.464-10.827,7.464s-42-25.956-42-46.866c0-12.6 7.749-25.197 22.5-25.197 13.5,0 19.5,12.888 19.5,12.888s5.25-12.888 19.5-12.888 22.248,12.345 22.248,25.197c0,2.874-.816,5.829-2.148,8.796-3.843-4.308-9.402-7.032-15.6-7.032zm-0,3.021c9.939,0 18,8.121 18,18.141s-8.061,18.144-18,18.144c-9.942,0-18-8.124-18-18.144s8.058-18.141 18-18.141zm-9,21.165h6v6.048h6v-6.048h6v-6.048h-6v-6.048h-6v6.048h-6v6.048z"/>
</svg>
