<?xml version="1.0" ?><svg viewBox="0 0 32 32" xmlns="http://www.w3.org/2000/svg"><defs><style>.cls-1{fill:#101820;}</style></defs><title/><g data-name="Layer 24" id="Layer_24"><path class="cls-1" d="M26,30a1,1,0,0,1-.62-.22L18.15,24H4a3,3,0,0,1-3-3V5A3,3,0,0,1,4,2H28a3,3,0,0,1,3,3V21a3,3,0,0,1-3,3H27v5a1,1,0,0,1-.57.9A.91.91,0,0,1,26,30ZM4,4A1,1,0,0,0,3,5V21a1,1,0,0,0,1,1H18.5a1,1,0,0,1,.63.22L25,26.92V23a1,1,0,0,1,1-1h2a1,1,0,0,0,1-1V5a1,1,0,0,0-1-1Z"/><rect class="cls-1" height="2" width="2" x="15" y="12"/><rect class="cls-1" height="2" width="2" x="8" y="12"/><rect class="cls-1" height="2" width="2" x="22" y="12"/></g></svg>